<mxfile host="app.diagrams.net" modified="2023-06-11T07:20:25.581Z" agent="Mozilla/5.0 (Windows NT 10.0; Win64; x64) AppleWebKit/537.36 (KHTML, like Gecko) Chrome/114.0.0.0 Safari/537.36" version="21.3.8" etag="AEncXdmljzcWZ5qk0Tt0" type="github">
  <diagram name="第 1 页" id="Lh_bSpyGtD9zrscmBauO">
    <mxGraphModel>
      <root>
        <mxCell id="0" />
        <mxCell id="1" parent="0" />
      </root>
    </mxGraphModel>
  </diagram>
</mxfile>
